<svg xmlns="http://www.w3.org/2000/svg" aria-hidden="true" style="position:absolute;width:0;height:0;overflow:hidden"><defs><symbol id="icon-Instagram" viewBox="0 0 32 32"><path fill="#4d5ae5" d="M32 16c0 4.418-1.791 8.418-4.686 11.314S20.419 32 16 32c-4.418 0-8.418-1.791-11.314-4.686S0 20.419 0 16c0-4.418 1.791-8.418 4.686-11.314S11.581 0 16 0c4.418 0 8.418 1.791 11.314 4.686S32 11.581 32 16z" style="fill:var(--color1, #4d5ae5)"/><path fill="#f4f4fd" d="M22.387 13.363c-.03-.68-.14-1.148-.298-1.553a3.136 3.136 0 0 0-.74-1.135 3.153 3.153 0 0 0-1.133-.738c-.408-.158-.873-.268-1.553-.298-.685-.032-.903-.04-2.641-.04s-1.955.008-2.638.038c-.68.03-1.148.14-1.553.298-.43.162-.815.413-1.135.74-.325.32-.578.708-.738 1.133-.158.408-.268.873-.298 1.553-.032.685-.04.903-.04 2.641s.008 1.955.038 2.638c.03.68.14 1.148.298 1.553.162.43.415.815.74 1.135.32.325.708.578 1.133.738.408.158.873.268 1.553.298.683.03.9.038 2.638.038s1.955-.007 2.638-.038c.68-.03 1.148-.14 1.553-.298a3.278 3.278 0 0 0 1.873-1.873c.157-.408.268-.873.298-1.553.03-.683.038-.9.038-2.638s-.003-1.955-.033-2.638zm-1.152 5.226c-.028.625-.133.963-.22 1.188-.215.558-.658 1-1.215 1.215-.225.088-.565.193-1.188.22-.675.03-.878.037-2.585.037s-1.913-.007-2.586-.037c-.625-.027-.963-.132-1.188-.22a1.966 1.966 0 0 1-.735-.478 1.998 1.998 0 0 1-.478-.735c-.088-.225-.193-.565-.22-1.188-.03-.675-.038-.878-.038-2.586s.007-1.913.038-2.586c.027-.625.132-.963.22-1.188.103-.278.265-.53.48-.735a1.99 1.99 0 0 1 .735-.478c.225-.087.565-.192 1.188-.22.675-.03.878-.038 2.586-.038 1.71 0 1.913.008 2.586.038.625.028.963.133 1.188.22.277.102.53.265.735.478.212.208.375.458.478.735.088.225.192.565.22 1.188.03.675.038.878.038 2.586s-.008 1.908-.038 2.583z" style="fill:var(--color2, #f4f4fd)"/><path fill="#f4f4fd" d="M16.024 12.713a3.29 3.29 0 0 0 0 6.576 3.29 3.29 0 0 0 0-6.576zm0 5.421a2.133 2.133 0 1 1 0-4.266 2.133 2.133 0 0 1 0 4.266zM20.21 12.583a.768.768 0 1 1-1.536 0 .768.768 0 0 1 1.536 0z" style="fill:var(--color2, #f4f4fd)"/></symbol>
<symbol id="icon-Twitter" viewBox="0 0 32 32"><path fill="#4d5ae5" d="M32 16c0 4.418-1.791 8.418-4.686 11.314S20.419 32 16 32c-4.418 0-8.418-1.791-11.314-4.686S0 20.419 0 16c0-4.418 1.791-8.418 4.686-11.314S11.581 0 16 0c4.418 0 8.418 1.791 11.314 4.686S32 11.581 32 16z" style="fill:var(--color1, #4d5ae5)"/><path fill="#f4f4fd" d="M22.4 12.031a5.455 5.455 0 0 1-1.512.414 2.608 2.608 0 0 0 1.154-1.45 5.245 5.245 0 0 1-1.664.635 2.623 2.623 0 0 0-4.539 1.795c0 .208.018.408.061.598a7.426 7.426 0 0 1-5.409-2.745 2.628 2.628 0 0 0 .807 3.507 2.591 2.591 0 0 1-1.186-.323v.029c0 1.275.91 2.334 2.102 2.578a2.636 2.636 0 0 1-.688.086c-.168 0-.338-.01-.497-.045a2.65 2.65 0 0 0 2.452 1.828 5.275 5.275 0 0 1-3.882 1.083 7.384 7.384 0 0 0 4.026 1.178c4.829 0 7.469-4 7.469-7.467a6.24 6.24 0 0 0-.01-.339c.521-.37.958-.831 1.315-1.362z" style="fill:var(--color2, #f4f4fd)"/></symbol>
<symbol id="icon-LinkedIn" viewBox="0 0 32 32"><path fill="#4d5ae5" d="M32 16c0 4.418-1.791 8.418-4.686 11.314S20.419 32 16 32c-4.418 0-8.418-1.791-11.314-4.686S0 20.419 0 16c0-4.418 1.791-8.418 4.686-11.314S11.581 0 16 0c4.418 0 8.418 1.791 11.314 4.686S32 11.581 32 16z" style="fill:var(--color1, #4d5ae5)"/><path fill="#f4f4fd" d="M22.397 22.4v-.001h.003v-4.694c0-2.297-.494-4.066-3.179-4.066-1.291 0-2.157.708-2.51 1.38h-.037v-1.165h-2.546V22.4h2.651v-4.231c0-1.114.211-2.192 1.591-2.192 1.36 0 1.38 1.272 1.38 2.263v4.161h2.648zM9.811 13.854h2.654V22.4H9.811v-8.546zM11.137 9.6c-.849 0-1.537.688-1.537 1.537s.688 1.551 1.537 1.551 1.537-.703 1.537-1.551S11.985 9.6 11.137 9.6z" style="fill:var(--color2, #f4f4fd)"/></symbol>
<symbol id="icon-Facebook" viewBox="0 0 32 32"><path fill="#4d5ae5" d="M32 16c0 4.418-1.791 8.418-4.686 11.314S20.419 32 16 32c-4.418 0-8.418-1.791-11.314-4.686S0 20.419 0 16c0-4.418 1.791-8.418 4.686-11.314S11.581 0 16 0c4.418 0 8.418 1.791 11.314 4.686S32 11.581 32 16z" style="fill:var(--color1, #4d5ae5)"/><path fill="#f4f4fd" d="M18.132 11.725h1.169V9.69a15.04 15.04 0 0 0-1.702-.09c-1.685 0-2.839 1.06-2.839 3.007V14.4h-1.859v2.275h1.859V22.4h2.279v-5.724h1.784l.283-2.275h-2.068v-1.567c0-.658.178-1.108 1.094-1.108z" style="fill:var(--color2, #f4f4fd)"/></symbol>
<symbol id="icon-Tag-Line" viewBox="0 0 61 32"><path fill="#8e8f99" d="M31.102 15.797a1.066 1.066 0 0 1-.221-.728v.003-1.05c0-.322.073-.567.219-.734s.397-.251.753-.25c.335 0 .572.071.712.214a.87.87 0 0 1 .21.628v.247h-.598v-.25a1.34 1.34 0 0 0-.017-.245.235.235 0 0 0-.085-.145.344.344 0 0 0-.191-.057l-.027.001h.001l-.026-.001a.37.37 0 0 0-.203.061l.001-.001a.285.285 0 0 0-.099.158v.002a1.195 1.195 0 0 0-.024.239v.022-.001 1.275a.647.647 0 0 0 .078.361l-.002-.003a.286.286 0 0 0 .117.086l.002.001a.338.338 0 0 0 .155.02.327.327 0 0 0 .212-.058.26.26 0 0 0 .089-.153v-.002c.014-.084.02-.17.019-.255v-.259h.598v.236l.002.062a.961.961 0 0 1-.21.6l.001-.002c-.137.156-.371.234-.716.234s-.604-.083-.752-.256zm2.489.011c-.151-.164-.227-.402-.227-.717v-1.105c0-.312.076-.548.227-.708s.404-.24.758-.239c.352 0 .603.08.754.239.151.16.228.396.228.708v1.105c0 .312-.077.551-.23.716s-.404.247-.752.247-.605-.083-.758-.245zm1.037-.265a.62.62 0 0 0 .072-.327v-1.353l.001-.035a.596.596 0 0 0-.074-.288l.002.003a.29.29 0 0 0-.12-.088l-.002-.001a.316.316 0 0 0-.159-.018h.002c-.012-.002-.026-.002-.041-.002a.34.34 0 0 0-.12.022l.002-.001a.296.296 0 0 0-.123.088v.001a.585.585 0 0 0-.072.321v1.359a.6.6 0 0 0 .072.327.384.384 0 0 0 .126.081.422.422 0 0 0 .311-.001l-.003.001a.384.384 0 0 0 .126-.081v-.007zm1.422-2.472h.644l.484 2.038.495-2.038h.627l.063 2.942H37.9l-.049-2.044-.478 2.044h-.371l-.495-2.052-.046 2.052h-.468l.058-2.942zm3.035 0h1.003c.577 0 .867.279.867.835 0 .533-.304.8-.912.799h-.342v1.307h-.619l.004-2.942zm.856 1.258a.466.466 0 0 0 .34-.094.476.476 0 0 0 .089-.332l.001-.034a.908.908 0 0 0-.032-.24l.001.006a.231.231 0 0 0-.046-.081.277.277 0 0 0-.077-.059l-.001-.001a.634.634 0 0 0-.243-.048l-.035.001h.002-.24v.879h.24zm1.906-1.258h.665l.682 2.942h-.577l-.135-.678h-.593l-.139.678h-.585l.682-2.942zm.568 1.923-.231-1.235-.232 1.235h.463zm1.33-1.923h.433l.829 1.678v-1.678h.514v2.942h-.412l-.835-1.752v1.752h-.531l.001-2.942zm2.98 1.821-.689-1.816h.581l.421 1.167.395-1.167h.568l-.681 1.816v1.121h-.594v-1.121zM32.057 17.3v.154h-.505v1.195h-.211v-1.195h-.508V17.3h1.224zm1.584 1.349h-.168a.071.071 0 0 1-.041-.013.071.071 0 0 1-.027-.03l-.146-.32h-.701l-.146.32a.084.084 0 0 1-.022.036.075.075 0 0 1-.042.013h-.167l.619-1.349h.216l.626 1.344zm-1.025-.501h.584l-.247-.549a.837.837 0 0 1-.044-.12l-.002-.007-.023.072-.023.057-.245.548zm2.092.368a.659.659 0 0 0 .215-.016.666.666 0 0 0 .094-.026l-.005.002.083-.033v-.303h-.251a.088.088 0 0 1-.016-.002.053.053 0 0 1-.015-.008.024.024 0 0 1-.009-.011.027.027 0 0 1-.003-.012v-.106h.48v.517a.913.913 0 0 1-.255.109l-.007.001a1.172 1.172 0 0 1-.155.028 1.686 1.686 0 0 1-.181.009h-.007a.94.94 0 0 1-.311-.053l.007.002a.763.763 0 0 1-.249-.142l.001.001a.664.664 0 0 1-.158-.21l-.002-.004a.663.663 0 0 1-.057-.271V17.97c0-.099.02-.193.057-.278l-.002.005c.036-.08.09-.153.16-.214s.155-.108.247-.14c.106-.035.219-.051.332-.05.058 0 .115.004.172.012a.874.874 0 0 1 .271.087.805.805 0 0 1 .108.071l-.059.084a.05.05 0 0 1-.02.018.064.064 0 0 1-.028.007.074.074 0 0 1-.039-.011.62.62 0 0 1-.064-.034l.004.002a.522.522 0 0 0-.079-.035l-.004-.001a.749.749 0 0 0-.109-.029l-.005-.001a.978.978 0 0 0-.149-.012h-.016a.745.745 0 0 0-.237.039l.005-.002a.525.525 0 0 0-.182.107.448.448 0 0 0-.115.167.626.626 0 0 0 .001.454l-.001-.004a.484.484 0 0 0 .124.17.54.54 0 0 0 .181.107.722.722 0 0 0 .245.027zm1.973-.021h.676v.154h-.883V17.3h.212l-.005 1.195zm1.38.154h-.212V17.3h.212v1.349zm.787-1.343a.11.11 0 0 1 .032.025l.905 1.017-.001-.024.001-.025v.001-1.005h.184v1.355h-.114a.106.106 0 0 1-.04-.008h.001a.12.12 0 0 1-.033-.025l-.904-1.016v1.049h-.177v-1.349h.11c.012 0 .024.002.035.006zm2.681-.006v.148h-.751v.445h.608v.143h-.608v.46h.751v.148h-.968v-1.346h.968zM19.344 8.967l9.401 2.303v8.071l-9.401-2.302V8.966zm-.603-.688v9.152l10.605 2.599v-9.151l-10.605-2.6z" style="fill:var(--color3, #8e8f99)"/><path fill="#8e8f99" d="m24.425 24.279-10.607-2.601v-9.151l10.607 2.6v9.153zM18.916 8.863l9.278 2.274-3.945 3.406-9.28-2.276 3.947-3.404zm-.175-.584-4.923 4.247 10.607 2.6 4.921-4.247-10.605-2.6zm6.281 15.485 4.324-3.732-4.325-1.061v4.793z" style="fill:var(--color3, #8e8f99)"/></symbol>
<symbol id="icon-Brand" viewBox="0 0 61 32"><path fill="#8e8f99" d="M21.379 21.954c.089.1.137.224.135.352.004.083-.012.167-.048.244s-.091.145-.16.201a.965.965 0 0 1-.608.162h.003-1.064v-2.23h1.042a.963.963 0 0 1 .581.15l-.004-.002c.068.051.121.115.156.187s.051.151.047.23a.484.484 0 0 1-.121.341.581.581 0 0 1-.313.174l-.004.001a.62.62 0 0 1 .359.191zm-1.248-.337h.445a.452.452 0 0 0 .283-.074.278.278 0 0 0 .076-.097l.001-.002a.237.237 0 0 0 .02-.097l-.001-.023v.001l.001-.019a.26.26 0 0 0-.021-.101l.001.002a.263.263 0 0 0-.074-.099.459.459 0 0 0-.255-.076c-.013 0-.025 0-.038.002h.002-.439v.585zm.772.855a.265.265 0 0 0 .081-.101l.001-.002a.247.247 0 0 0 .024-.107l-.001-.018v.001-.016a.25.25 0 0 0-.026-.112l.001.002a.277.277 0 0 0-.083-.102h-.001a.494.494 0 0 0-.273-.082l-.031.001h.001-.468v.613h.473a.515.515 0 0 0 .299-.077zm2.606.441-.58-.872h-.218v.871h-.498v-2.23h.944l.068-.002c.221 0 .426.072.592.194l-.003-.002c.132.121.212.281.224.45s-.042.337-.154.473a.793.793 0 0 1-.45.227l.617.891h-.542zm-.798-1.176h.408c.283 0 .425-.113.425-.338l.001-.018a.316.316 0 0 0-.024-.119l.001.002a.328.328 0 0 0-.081-.115.475.475 0 0 0-.281-.092l-.042.002h.002-.413l.005.679zm3.523.727h-.994l-.176.449h-.523l.913-2.205h.565l.909 2.205h-.523l-.172-.449zm-.133-.338-.363-.941-.363.941h.726zm3.544.787h-.495l-1.11-1.516v1.516h-.494v-2.23h.494l1.109 1.525v-1.525h.495v2.23zm2.824-.534c-.108.172-.26.307-.441.391l-.006.003a1.589 1.589 0 0 1-.696.14h-.881v-2.23h.881l.041-.001c.237 0 .462.051.665.142l-.01-.004c.189.086.345.222.448.389a1.19 1.19 0 0 1-.003 1.176l.003-.006zm-.566-.054a.77.77 0 0 0 .219-.532.77.77 0 0 0-.219-.532.92.92 0 0 0-.623-.19h.003-.344v1.444h.344a.916.916 0 0 0 .621-.191l-.002.002zM26.544 8.279s6.388 2.171 6.252 5.313v5.314s-6.383-2.172-6.251-5.314l-.003-5.313zm11.943 9.383a9.366 9.366 0 0 1 4.059-1.347v-1.664c-1.679.583-3.102 1.638-4.059 3.01z" style="fill:var(--color3, #8e8f99)"/><path fill="#8e8f99" d="M37.762 18.163c.987-1.79 2.699-3.171 4.783-3.86V9.51s-9.097 3.093-8.905 7.567v7.566s.405-.138 1.043-.398c0-.242 0-.486.029-.731.188-2.077 1.285-4.002 3.049-5.351z" style="fill:var(--color3, #8e8f99)"/><path fill="#8e8f99" d="M36.897 20.973a7.108 7.108 0 0 1 .319-1.549c-1.099 1.165-1.764 2.611-1.903 4.134-.013.144-.02.287-.024.436a25.839 25.839 0 0 0 1.901-.902l-.151.072a7.12 7.12 0 0 1-.139-2.219l-.002.028zm.362.028a6.8 6.8 0 0 0 .12 2.028l-.008-.044c2.485-1.339 5.278-3.407 5.171-5.908v-.218c-1.776.179-3.437.878-4.729 1.989a6.665 6.665 0 0 0-.552 2.126l-.002.027z" style="fill:var(--color3, #8e8f99)"/></symbol>
<symbol id="icon-Foster-Peters" viewBox="0 0 61 32"><path fill="#8e8f99" d="M20.392 13.643h-.001c-.867 0-1.571.634-1.571 1.416v.001c0 .782.704 1.416 1.571 1.416h.001c.868 0 1.571-.634 1.571-1.416v-.001c0-.782-.703-1.416-1.571-1.416zm11.594-.453c-.002-1.087-.482-2.127-1.334-2.896s-2.007-1.201-3.212-1.203c-1.205.002-2.36.435-3.213 1.203s-1.332 1.81-1.335 2.896v5.991s9.092-.913 9.093-5.989v-.001zm-16.35 7.957c.002.756.336 1.48.929 2.015s1.396.836 2.235.838c.838-.002 1.641-.303 2.234-.838s.927-1.258.929-2.015v-4.168s-6.327.635-6.327 4.167zm3.164.747a.893.893 0 0 1-.46-.126.768.768 0 0 1-.303-.331l-.002-.005a.667.667 0 0 1-.046-.436l-.001.005a.733.733 0 0 1 .226-.382l.001-.001a.86.86 0 0 1 .419-.204l.005-.001c.16-.029.327-.014.479.043s.281.152.372.275a.696.696 0 0 1-.101.945.862.862 0 0 1-.263.161l-.006.002a.894.894 0 0 1-.317.057h-.001v-.003zm5.785-1.343v1.551h-.32v-1.551h.32zm.618.662v.249h-.705v-.249h.705zm.074-.662v.25h-.779v-.25h.78zm1.46.739v.073a.973.973 0 0 1-.048.317.703.703 0 0 1-.136.241l.001-.001a.59.59 0 0 1-.209.15.653.653 0 0 1-.258.052h-.01a.666.666 0 0 1-.267-.052.598.598 0 0 1-.208-.15v-.001a.697.697 0 0 1-.136-.235l-.001-.005a.977.977 0 0 1-.048-.303v-.015.001-.073c0-.119.016-.224.048-.317a.722.722 0 0 1 .136-.241l-.001.001c.059-.066.128-.116.209-.151s.17-.052.268-.052.187.017.267.052.151.085.209.151a.687.687 0 0 1 .136.24.946.946 0 0 1 .049.317zm-.323.074v-.076a.936.936 0 0 0-.022-.217.468.468 0 0 0-.067-.16l.001.002a.29.29 0 0 0-.105-.095l-.002-.001a.295.295 0 0 0-.137-.033h-.006a.306.306 0 0 0-.144.033.292.292 0 0 0-.105.095l-.001.001a.466.466 0 0 0-.064.155l-.001.003a.924.924 0 0 0-.022.204v.014-.001.076c0 .082.007.154.022.217s.037.115.066.159a.29.29 0 0 0 .251.13.285.285 0 0 0 .249-.129l.001-.001a.514.514 0 0 0 .065-.159.931.931 0 0 0 .022-.204v-.014.001zm1.361.332v-.003a.22.22 0 0 0-.013-.073v.001a.147.147 0 0 0-.044-.062.374.374 0 0 0-.09-.055l-.003-.001a1.134 1.134 0 0 0-.145-.055l-.009-.002a1.762 1.762 0 0 1-.213-.082l.012.005a.888.888 0 0 1-.168-.1l.002.001a.467.467 0 0 1-.112-.131l-.001-.002a.36.36 0 0 1-.041-.168V20.956c0-.063.016-.121.044-.173l-.001.002a.396.396 0 0 1 .119-.136.567.567 0 0 1 .181-.089.843.843 0 0 1 .231-.031c.114 0 .214.021.299.062s.151.098.198.169a.44.44 0 0 1 .071.246h-.317v-.005a.245.245 0 0 0-.029-.115l.001.001a.195.195 0 0 0-.084-.082h-.001a.298.298 0 0 0-.132-.03h-.012.001-.011a.332.332 0 0 0-.13.026l.002-.001a.177.177 0 0 0-.083.067v.001a.165.165 0 0 0-.027.091v.003c0 .026.006.05.019.071a.207.207 0 0 0 .059.059h.001c.026.019.058.036.097.052s.083.032.133.048c.085.025.159.054.223.086s.119.068.162.108a.396.396 0 0 1 .131.307v.015c0 .123-.06.233-.153.301l-.001.001c-.049.037-.109.065-.178.084a.869.869 0 0 1-.458-.001.692.692 0 0 1-.206-.094l.002.002a.484.484 0 0 1-.144-.155l-.001-.002a.457.457 0 0 1-.054-.227h.321c0 .048.007.089.022.123s.036.06.062.08c.028.02.061.036.096.044h.002c.038.009.08.014.125.014h.012a.354.354 0 0 0 .127-.024l-.002.001a.169.169 0 0 0 .107-.157v-.002zm1.23-1.145v1.551h-.319v-1.551h.319zm.478 0v.25h-1.265v-.25h1.265zm1.222 1.302v.249h-.825v-.249h.825zm-.721-1.302v1.551h-.32v-1.551h.32zm.614.632v.243h-.718v-.243h.718zm.106-.632v.25h-.825v-.25h.825zm.188 0h.578c.119 0 .221.018.306.053.086.036.152.088.198.158s.069.155.069.257c0 .083-.014.155-.043.214s-.068.109-.117.147l-.001.001a.618.618 0 0 1-.174.093l-.004.001-.101.053H31.1l-.002-.249h.385a.29.29 0 0 0 .131-.031l-.002.001a.199.199 0 0 0 .083-.082v-.001a.254.254 0 0 0 .029-.118V21.035a.281.281 0 0 0-.028-.123l.001.002a.188.188 0 0 0-.083-.082h-.001a.315.315 0 0 0-.132-.029h-.269v1.301h-.319v-1.551zm.867 1.551-.353-.692.337-.002.358.679v.015h-.342zm1.678-.553h-.395V21.3H33.45c.05 0 .096-.011.138-.031l-.002.001a.2.2 0 0 0 .084-.084l.001-.001a.319.319 0 0 0-.001-.254l.001.002a.214.214 0 0 0-.083-.095l-.001-.001a.272.272 0 0 0-.137-.037h-.012.001-.285v1.301h-.32V20.55h.604c.121 0 .225.022.312.066a.468.468 0 0 1 .269.443c0 .1-.023.187-.069.26s-.113.13-.2.169a.744.744 0 0 1-.313.06zm1.843.304v.249h-.825v-.249h.825zm-.721-1.302v1.551h-.32v-1.551h.32zm.613.632v.243h-.718v-.243h.718zm.107-.632v.25h-.824v-.25h.824zm.902 0v1.551h-.319v-1.551h.319zm.478 0v.25h-1.265v-.25h1.265zm1.222 1.302v.249h-.825v-.249h.825zm-.721-1.302v1.551h-.32v-1.551h.32zm.614.632v.243h-.718v-.243h.718zm.106-.632v.25h-.824v-.25h.824zm.188 0h.579c.119 0 .22.018.306.053s.152.088.198.158.069.155.069.257c0 .083-.014.155-.043.214s-.068.109-.117.147l-.001.001a.618.618 0 0 1-.174.093l-.004.001-.101.053h-.503l-.002-.249h.385a.283.283 0 0 0 .13-.031l-.002.001a.199.199 0 0 0 .083-.082l.001-.001a.254.254 0 0 0 .029-.118V21.035a.281.281 0 0 0-.028-.123l.001.002a.188.188 0 0 0-.083-.082h-.001a.31.31 0 0 0-.131-.029h-.269v1.301h-.32v-1.551zm.867 1.551-.354-.692.338-.002.358.679v.015h-.342zm1.338-.406v-.004a.214.214 0 0 0-.013-.072v.001a.147.147 0 0 0-.044-.062.374.374 0 0 0-.09-.055l-.002-.001a1.134 1.134 0 0 0-.145-.055l-.009-.002a1.682 1.682 0 0 1-.212-.082l.012.005a.888.888 0 0 1-.168-.1l.002.001a.452.452 0 0 1-.112-.131l-.001-.002a.356.356 0 0 1-.04-.168v-.008c0-.065.014-.123.043-.176a.42.42 0 0 1 .118-.136l.001-.001a.567.567 0 0 1 .181-.089.79.79 0 0 1 .223-.031h.008c.114 0 .214.021.299.062s.151.098.198.169a.433.433 0 0 1 .071.246h-.317v-.006a.245.245 0 0 0-.029-.115l.001.001a.195.195 0 0 0-.084-.082h-.001a.298.298 0 0 0-.132-.03h-.012.001-.011a.332.332 0 0 0-.13.026l.002-.001a.188.188 0 0 0-.083.067v.001a.166.166 0 0 0-.028.091v.003c0 .026.006.05.019.071a.207.207 0 0 0 .059.059h.001c.026.019.059.036.097.052s.083.032.133.048c.085.025.159.054.223.086s.119.068.162.108.076.085.098.135a.429.429 0 0 1 .033.172.372.372 0 0 1-.152.316l-.001.001a.528.528 0 0 1-.174.083l-.004.001a.869.869 0 0 1-.458-.001.692.692 0 0 1-.206-.094l.002.002a.473.473 0 0 1-.144-.155l-.001-.002a.452.452 0 0 1-.054-.216v-.012.001h.321c0 .048.007.089.022.123s.036.06.062.08c.028.02.061.036.096.044h.002c.038.009.08.014.125.014h.012a.349.349 0 0 0 .126-.024l-.002.001a.169.169 0 0 0 .107-.156v-.003z" style="fill:var(--color3, #8e8f99)"/></symbol><symbol id="icon-Company" viewBox="0 0 61 32"><path fill="#8e8f99" d="M25.022 23.717c.006 0 .012.001.017.004l.015.008.08.076a.676.676 0 0 1-.221.142l-.005.002a.89.89 0 0 1-.32.051h-.016a.876.876 0 0 1-.291-.05l.006.002a.664.664 0 0 1-.227-.136.607.607 0 0 1-.145-.205l-.002-.004a.686.686 0 0 1-.051-.261v-.017c0-.094.02-.184.057-.265l-.002.004a.626.626 0 0 1 .155-.209.726.726 0 0 1 .236-.135l.005-.002a.958.958 0 0 1 .3-.048h.011-.001a.85.85 0 0 1 .288.044c.08.03.153.071.216.121l-.067.081a.046.046 0 0 1-.017.014.046.046 0 0 1-.023.006h-.004a.066.066 0 0 1-.029-.009l-.036-.021-.05-.027a.573.573 0 0 0-.155-.048h-.003a.748.748 0 0 0-.11-.008h-.011.001-.008a.668.668 0 0 0-.22.037l.005-.001a.508.508 0 0 0-.175.102h.001a.463.463 0 0 0-.113.161.526.526 0 0 0-.041.206v.015a.53.53 0 0 0 .043.211l-.001-.004a.46.46 0 0 0 .275.259l.003.001a.6.6 0 0 0 .207.034.846.846 0 0 0 .123-.007.486.486 0 0 0 .266-.111l-.001.001a.07.07 0 0 1 .038-.014zm2.318-.379a.65.65 0 0 1-.054.267.584.584 0 0 1-.151.207l-.001.001a.713.713 0 0 1-.237.136.985.985 0 0 1-.617-.002l.007.002a.712.712 0 0 1-.237-.137l.001.001a.61.61 0 0 1-.151-.205l-.002-.004a.68.68 0 0 1 .002-.539l-.002.004a.634.634 0 0 1 .153-.21.707.707 0 0 1 .236-.131.978.978 0 0 1 .61 0c.089.031.17.077.237.136a.612.612 0 0 1 .206.459v.017-.001zm-.211 0a.552.552 0 0 0-.038-.215.443.443 0 0 0-.274-.261l-.003-.001a.712.712 0 0 0-.449.002l.005-.001a.477.477 0 0 0-.17.102.423.423 0 0 0-.107.157l-.001.003a.62.62 0 0 0 0 .429.449.449 0 0 0 .278.26c.143.046.3.046.444 0a.463.463 0 0 0 .169-.1.458.458 0 0 0 .108-.16.549.549 0 0 0 .038-.215zm1.794.225.021.048.023-.048c.008-.016.016-.032.026-.047l.513-.796c.01-.014.019-.023.029-.025s.022-.004.034-.004h.16v1.296h-.18v-.993l-.001-.022.001-.023v.001l-.516.808a.065.065 0 0 1-.03.029.089.089 0 0 1-.043.011H28.929a.093.093 0 0 1-.044-.011.076.076 0 0 1-.03-.029l-.531-.813v1.04h-.174v-1.293h.158c.013 0 .025.002.036.005h-.001a.06.06 0 0 1 .028.024l.524.797c.011.015.019.03.027.047zm1.93-.064v.485h-.201V22.69h.447a.994.994 0 0 1 .25.028.518.518 0 0 1 .177.08.326.326 0 0 1 .099.125l.001.002a.382.382 0 0 1 .034.165v.006a.357.357 0 0 1-.145.288l-.001.001a.51.51 0 0 1-.175.085l-.004.001a.89.89 0 0 1-.241.03l-.243-.004zm0-.139h.243a.573.573 0 0 0 .155-.02.337.337 0 0 0 .114-.056l-.001.001a.245.245 0 0 0 .092-.192v-.016a.227.227 0 0 0-.021-.094l.001.001a.253.253 0 0 0-.07-.088.436.436 0 0 0-.238-.071l-.033.001h.001-.243v.533zm2.698.626h-.162a.079.079 0 0 1-.041-.012.09.09 0 0 1-.026-.029l-.136-.313H32.5l-.141.313a.07.07 0 0 1-.025.029.078.078 0 0 1-.043.013h-.16l.602-1.296h.209l.61 1.296zm-.994-.481h.566l-.239-.527a.78.78 0 0 1-.044-.116l-.002-.006-.023.068c-.007.021-.015.039-.022.055l-.237.527zm1.861-.809a.1.1 0 0 1 .03.023l.879.977V22.69h.18v1.296H35.403a.096.096 0 0 1-.038-.008h.001a.128.128 0 0 1-.032-.024l-.877-.976.001.022-.001.023v-.001.963h-.18v-1.296h.106c.012 0 .025.001.036.006zm2.567.775v.515h-.201v-.515l-.555-.78h.185c.014 0 .028.004.039.011.011.008.02.018.027.029l.347.504a.618.618 0 0 1 .06.111l.002.004.026-.056a.5.5 0 0 1 .034-.059l.343-.507a.096.096 0 0 1 .026-.027.068.068 0 0 1 .04-.013h.185l-.556.784zm-8.162-2.956c.087.009.176.017.265.024 1.354-.517 2.5-1.365 3.294-2.436s1.201-2.318 1.169-3.585l-1.492-1.275c.303 1.349.161 2.744-.41 4.029s-1.55 2.407-2.826 3.244z" style="fill:var(--color3, #8e8f99)"/><path fill="#8e8f99" d="m28.29 20.456.04.007c1.364-.833 2.404-1.997 2.985-3.341s.677-2.805.276-4.196l-2.126-1.816c.86 1.493 1.206 3.164.998 4.818s-.961 3.225-2.173 4.528zm7.21-4.441c-.361 1.393-1.239 2.649-2.501 3.582-.344.258-.733.5-1.143.708l-.045.021c1.028-.258 1.974-.715 2.763-1.335s1.401-1.386 1.789-2.24l-.862-.736z" style="fill:var(--color3, #8e8f99)"/><path fill="#8e8f99" d="m35.162 15.81-1.228-1.049c-.024 1.196-.421 2.364-1.152 3.384s-1.768 1.854-3.004 2.416h.006c.275 0 .551-.014.824-.042 1.155-.403 2.175-1.044 2.97-1.865s1.339-1.799 1.584-2.844zm-6.694-5.466-1.464-1.253c-1.309.432-2.435 1.192-3.231 2.18s-1.223 2.159-1.227 3.357c.005 1.325.527 2.611 1.484 3.654s2.293 1.784 3.797 2.105c1.343-1.399 2.13-3.126 2.245-4.932s-.447-3.596-1.604-5.111zm10.077 5.273c-.005-1.572-.739-3.079-2.04-4.19s-3.064-1.738-4.904-1.743h-.016c-.883 0-1.733.145-2.526.412l.056-.016 8.967 7.661a5.042 5.042 0 0 0 .464-2.123z" style="fill:var(--color3, #8e8f99)"/></symbol><symbol id="icon-Nagline-Here" viewBox="0 0 61 32"><path fill="#8e8f99" d="M29.86 7.976h-.05a4.587 4.587 0 0 0-.223-.008h-.171c-.144 0-.292.004-.438.011l-.017-.001-.017.001h.001a10.258 10.258 0 0 0-3.885 1.002l.061-.027-.157.076v8.052l.368-.125c.323-.111.667-.211 1.023-.303.88-.235 1.892-.377 2.935-.391h.008v1.058a8.176 8.176 0 0 0-.387.011h-.031c-.827.046-1.601.171-2.347.366l.082-.018a11.464 11.464 0 0 0-2.757 1.082l.059-.03V8.406a10.605 10.605 0 0 1 2.756-1.135l.075-.016c.8-.215 1.718-.34 2.665-.344h.158c.186.005.367.013.537.026.448.032.893.103 1.329.212V8.19a7.83 7.83 0 0 0-1.261-.193l-.027-.002-.027-.002a3.269 3.269 0 0 0-.26-.016h-.003zm1.832 1.064c.231.018.47.026.712.026a11.471 11.471 0 0 0 2.885-.378l-.08.018a11.522 11.522 0 0 0 2.757-1.082l-.06.03v10.142c-.815.484-1.758.879-2.756 1.135l-.075.016c-.8.214-1.718.339-2.666.343h-.068c-.695 0-1.37-.087-2.014-.251l.056.012V8.843a8.518 8.518 0 0 0 1.309.196zm5.161.079-.368.124c-.338.114-.68.216-1.023.306-.916.245-1.969.388-3.054.392h-.002c-.24 0-.461-.007-.674-.02l-.293-.019v8.283l.252.022c.233.021.475.031.717.031a9.8 9.8 0 0 0 2.476-.327l-.068.015a9.975 9.975 0 0 0 1.941-.703l-.06.026.157-.076V9.119zM24.632 22.259a.542.542 0 0 0-.39-.166h-.02.001-.008a.596.596 0 0 0-.232.046l.004-.001a.534.534 0 0 0-.301.303l-.001.004a.595.595 0 0 0-.042.228v1.38a.64.64 0 0 0 .054.283.489.489 0 0 0 .327.283.758.758 0 0 0 .206.028.583.583 0 0 0 .572-.581v-.154h-.361v.131a.324.324 0 0 1-.022.117l.001-.002a.232.232 0 0 1-.052.078.253.253 0 0 1-.151.053l-.021.001a.182.182 0 0 1-.148-.075.328.328 0 0 1-.048-.171v-.015.001-1.287a.445.445 0 0 1 .044-.206.185.185 0 0 1 .155-.085l.022.001h-.001.007c.063 0 .119.03.154.077.037.049.06.11.06.177v.127h.357v-.147a.637.637 0 0 0-.046-.24l.002.004a.56.56 0 0 0-.121-.194zm2.142-.015a.635.635 0 0 0-.41-.152.606.606 0 0 0-.544.341l-.001.004a.643.643 0 0 0-.053.267v1.323a.649.649 0 0 0 .053.271.54.54 0 0 0 .14.185c.055.051.12.091.191.116a.618.618 0 0 0 .626-.117l-.001.001a.576.576 0 0 0 .188-.456v-1.335a.639.639 0 0 0-.054-.259l.002.004a.586.586 0 0 0-.136-.193zm-.168 1.783.001.02a.24.24 0 0 1-.072.171.266.266 0 0 1-.34 0 .236.236 0 0 1-.073-.17l.001-.022v.001-1.323l-.001-.02a.24.24 0 0 1 .072-.171.266.266 0 0 1 .34 0 .236.236 0 0 1 .073.171l-.001.021v-.001 1.324zm2.982.591v-2.505h-.347l-.456 1.326h-.006l-.459-1.326h-.343v2.505h.358v-1.524h.006l.351 1.077h.179l.353-1.077h.007v1.524h.358zm2.033-2.329a.498.498 0 0 0-.202-.137.769.769 0 0 0-.246-.039h-.545v2.505h.357v-.979h.184a.663.663 0 0 0 .322-.068.528.528 0 0 0 .195-.189l.001-.002a.614.614 0 0 0 .082-.218c.012-.079.019-.17.019-.262v-.024.001a1.39 1.39 0 0 0-.035-.358.527.527 0 0 0-.132-.23zm-.184.763a.318.318 0 0 1-.034.132l.001-.002a.201.201 0 0 1-.091.087l-.001.001a.366.366 0 0 1-.15.032h-.019.001-.163v-.852h.201a.34.34 0 0 1 .146.033l-.002-.001a.198.198 0 0 1 .083.091l.001.001c.02.044.03.092.031.14v.167c0 .058.004.119 0 .172h-.004zm1.875-.939h-.293l-.552 2.505h.357l.105-.538h.487l.105.538h.357l-.565-2.505zm-.329 1.626.176-.908h.007l.175.908h-.357zm2.635-.117h-.007l-.539-1.509h-.343v2.505h.357v-1.507h.007l.545 1.506h.336v-2.505h-.357v1.509zm2.181-1.509-.287.996h-.007l-.287-.996h-.378l.49 1.447v1.059h.357V23.56l.49-1.446h-.378zm-14.163 3.212h.172v.483h.117v-.483h.171v-.099h-.46v.099zm1.447-.099-.225.582h.124l.048-.132h.232l.049.132h.127l-.231-.582h-.124zm-.019.352.079-.216.079.216h-.158zm1.448.015h.135v.075a.223.223 0 0 1-.138.049h-.008a.146.146 0 0 1-.115-.056.244.244 0 0 1-.043-.139v-.014.001c0-.129.056-.194.167-.194l.013-.001c.057 0 .105.039.119.093v.001l.115-.022c-.025-.114-.107-.171-.247-.171h-.008a.287.287 0 0 0-.195.075.282.282 0 0 0-.084.202l.001.023v-.001.014c0 .078.028.15.075.205a.28.28 0 0 0 .203.086l.019-.001h-.001.01a.347.347 0 0 0 .237-.093v-.229h-.252v.098zm1.46-.367h-.118v.582h.407v-.099h-.289v-.483zm1.234 0h-.117v.582h.117v-.582zm1.207.389-.238-.388h-.114v.582h.109v-.38l.234.38h.117v-.582h-.108v.389zm1.091-.063h.29v-.099h-.29v-.127h.312v-.099h-.429v.582h.441v-.099h-.324v-.157zm2.646-.096h-.229v-.229h-.116v.581h.116v-.255h.229v.255h.117v-.582h-.117v.229zm1.097.096h.291v-.099h-.291v-.127h.313v-.099h-.429v.582h.441v-.099h-.324v-.157zm1.489 0c.101-.016.153-.069.153-.162l.001-.017a.138.138 0 0 0-.058-.112.325.325 0 0 0-.147-.035l-.024.001h.001-.247v.581h.117v-.243h.032a.15.15 0 0 1 .064.014h-.001a.12.12 0 0 1 .041.043l.127.185h.14l-.071-.113a.405.405 0 0 0-.127-.139l-.001-.001zm-.118-.081h-.086v-.146h.092l.025-.001c.034 0 .066.005.096.015l-.002-.001a.076.076 0 0 1 .025.057.074.074 0 0 1-.009.036.076.076 0 0 1-.022.025.334.334 0 0 1-.097.015l-.023-.001h.001zm1.24.081h.289v-.099h-.289v-.127h.313v-.099h-.431v.582h.441v-.099h-.324v-.157z" style="fill:var(--color3, #8e8f99)"/></symbol><symbol id="icon-Ya-Co" viewBox="0 0 61 32"><path fill="#8e8f99" d="m25.455 8.364 2.548 2.428-4.73-.002v11.778h12.364v-4.503l2.545 2.425V8.365H25.455zm10.069 9.415-7.225-6.884h7.225v6.884zm-2.243 3.065h-8.052v-7.921h.569v7.385h7.483v.537zm-6.446 3.906-.3-.617h-.248l.435.817v.476h.224v-.476l.435-.817h-.247l-.3.617zm1.106-.618h.053l.488 1.293h-.234l-.105-.303h-.5l-.104.303h-.233l.487-1.293h.149zm-.237.814h.379l-.189-.548-.189.548zm1.562-.215-.022-.028-.006-.008a.635.635 0 0 1-.076-.123l-.002-.004a.355.355 0 0 1 .014-.302.267.267 0 0 1 .117-.111l.002-.001a.377.377 0 0 1 .178-.04c.066 0 .123.013.17.04a.278.278 0 0 1 .126.359l.001-.002a.336.336 0 0 1-.062.093.647.647 0 0 1-.088.078l-.002.001-.09.065.256.302a.506.506 0 0 0 .056-.232v-.01h.185a.784.784 0 0 1-.019.178.546.546 0 0 1-.096.215l.001-.002.189.224h-.247l-.075-.088a.523.523 0 0 1-.129.072l-.003.001a.584.584 0 0 1-.196.033h-.005a.499.499 0 0 1-.223-.047.36.36 0 0 1-.145-.128l-.001-.001a.349.349 0 0 1-.051-.183v-.006c0-.053.011-.099.033-.138a.427.427 0 0 1 .09-.112c.035-.032.075-.064.12-.095zm.106.13-.027.019a.319.319 0 0 0-.069.073l-.001.001a.212.212 0 0 0-.011.22l-.001-.001a.185.185 0 0 0 .071.073h.001a.231.231 0 0 0 .109.027h.008a.329.329 0 0 0 .209-.074l-.001.001-.287-.338zm.051-.236.079-.053a.273.273 0 0 0 .079-.072l.001-.001a.16.16 0 0 0 .024-.085v-.006a.13.13 0 0 0-.129-.125h-.012a.13.13 0 0 0-.119.076v.001a.177.177 0 0 0-.015.073c0 .031.008.06.021.086v-.001a.473.473 0 0 0 .056.088l.015.019zm2.262.379h-.222a.407.407 0 0 1-.042.145l.001-.002a.197.197 0 0 1-.089.087l-.001.001a.334.334 0 0 1-.14.03h-.014.001-.007a.276.276 0 0 1-.128-.032l.001.001a.265.265 0 0 1-.092-.087l-.001-.001a.436.436 0 0 1-.053-.133v-.003a.826.826 0 0 1-.017-.171v-.116c0-.069.006-.13.019-.183s.032-.099.057-.136a.255.255 0 0 1 .093-.083l.001-.001a.288.288 0 0 1 .126-.028h.008c.062 0 .112.011.151.032s.067.051.087.091c.02.039.033.087.039.143h.222a.556.556 0 0 0-.074-.232l.001.003a.414.414 0 0 0-.163-.156l-.002-.001a.541.541 0 0 0-.244-.057h-.018.001c-.081 0-.154.014-.219.043s-.12.069-.166.124a.543.543 0 0 0-.105.188l-.001.004a.825.825 0 0 0-.036.252v.108c0 .093.012.177.036.252s.059.139.105.193a.476.476 0 0 0 .38.166c.104 0 .193-.019.265-.057s.129-.09.169-.156a.514.514 0 0 0 .071-.226zm1.233-.19v-.071a.815.815 0 0 0-.039-.262.576.576 0 0 0-.11-.199l.001.001a.465.465 0 0 0-.167-.124l-.003-.001a.53.53 0 0 0-.218-.044.526.526 0 0 0-.217.044c-.065.028-.122.07-.17.125s-.084.121-.11.198a.799.799 0 0 0-.039.25v.012-.001.071c0 .098.013.185.039.263a.615.615 0 0 0 .112.199l-.001-.001c.048.055.105.096.17.125s.138.043.217.043a.484.484 0 0 0 .387-.168.557.557 0 0 0 .109-.198.852.852 0 0 0 .038-.263zm-.223-.073v.073a.795.795 0 0 1-.021.192.418.418 0 0 1-.061.143l.001-.002a.27.27 0 0 1-.096.085l-.001.001a.291.291 0 0 1-.126.028h-.012a.29.29 0 0 1-.128-.029l.002.001a.291.291 0 0 1-.099-.085l-.001-.001a.423.423 0 0 1-.062-.138l-.001-.003a.744.744 0 0 1-.022-.182v-.011.001-.073c0-.072.007-.136.021-.191s.035-.102.061-.139a.253.253 0 0 1 .097-.084l.002-.001a.276.276 0 0 1 .127-.029h.005c.049 0 .093.01.132.029s.072.047.098.085a.386.386 0 0 1 .061.139.735.735 0 0 1 .021.191z" style="fill:var(--color3, #8e8f99)"/></symbol></defs></svg>